<svg width="155" height="155" viewBox="0 0 155 155" fill="none" xmlns="http://www.w3.org/2000/svg">
<g id="Frame 189">
<path id="Vector" d="M155 77.5307C155 73.0921 152.078 68.8943 146.885 65.1758C146.929 65.2348 146.974 65.2938 147.018 65.3553C148.433 67.287 149.183 69.3097 149.183 71.3938C149.183 81.7162 130.746 90.5541 104.583 94.2333C105.005 88.8435 105.231 83.2473 105.231 77.5012C105.231 71.0498 104.949 64.7826 104.415 58.7907C120.903 61.8899 132.088 67.9088 132.088 74.8272C132.088 76.179 131.66 77.4963 130.849 78.7645C130.726 78.9562 130.596 79.1454 130.456 79.3347C134.219 76.6042 136.332 73.532 136.332 70.2829C136.332 62.1185 122.985 55.0673 103.663 51.7666C99.8714 21.6155 89.6036 0 77.5295 0C73.0911 0 68.8935 2.92221 65.1752 8.11534C65.2342 8.0711 65.2932 8.02686 65.3546 7.98262C67.2863 6.56698 69.3089 5.81738 71.3929 5.81738C81.7246 5.81738 90.5719 24.2969 94.2435 50.5083C89.3751 50.029 84.2485 49.771 78.95 49.771C71.8205 49.771 64.9958 50.2379 58.697 51.0858C61.769 34.3243 67.8368 22.9132 74.8237 22.9132C76.1754 22.9132 77.4926 23.3408 78.7607 24.1519C78.9524 24.2747 79.1417 24.405 79.3309 24.5451C76.6005 20.7823 73.5285 18.6687 70.2796 18.6687C61.9877 18.6687 54.846 32.4368 51.6118 52.2459C33.7156 55.7186 21.5653 62.4945 21.5653 70.2854C21.5653 73.5714 23.728 76.6804 27.5741 79.433C27.5397 79.3887 27.5078 79.3445 27.4758 79.3003C26.4289 77.8699 25.8735 76.3707 25.8735 74.8297C25.8735 68.3266 35.7628 62.6174 50.6484 59.3806C50.0758 64.6573 49.7686 70.2559 49.7686 76.0536C49.7686 82.4338 50.1421 88.5707 50.8278 94.3045C24.4014 90.6671 5.73355 81.7825 5.73355 71.3963C5.73355 69.5702 6.31108 67.7908 7.40471 66.0778C7.56937 65.8198 7.74631 65.5617 7.93555 65.3061C2.85326 68.9927 0 73.1437 0 77.5307C0 89.6791 21.875 99.999 52.3097 103.735C55.802 121.44 62.5382 133.436 70.2796 133.436C73.5654 133.436 76.6743 131.273 79.4268 127.427C79.3825 127.461 79.3383 127.493 79.294 127.525C77.8637 128.572 76.3646 129.128 74.8237 129.128C68.3381 129.128 62.6414 119.292 59.4023 104.47C65.2096 104.966 71.2676 105.231 77.5 105.231C83.2483 105.231 88.8491 105.005 94.2411 104.58C90.5694 130.789 81.7221 149.266 71.3904 149.266C69.5645 149.266 67.7852 148.689 66.0722 147.595C65.8142 147.43 65.5561 147.253 65.3005 147.064C68.9869 152.147 73.1378 155 77.5246 155C89.5471 155 99.7805 133.569 103.612 103.614C133.562 99.7828 154.995 89.5489 154.995 77.5258L155 77.5307ZM56.5663 76.0217C56.5663 69.7324 56.9423 63.7012 57.6329 58.1026C64.1676 57.1146 71.388 56.564 78.9844 56.564C84.5926 56.564 89.9993 56.8639 95.0742 57.4193C95.7156 63.8044 96.0597 70.5582 96.0597 77.5455C96.0597 83.6701 95.7943 89.6177 95.2978 95.2925C89.5962 95.7939 83.6194 96.0618 77.4607 96.0618C70.636 96.0618 64.0349 95.7349 57.7828 95.1205C56.9964 89.1925 56.5663 82.7558 56.5663 76.0217Z" fill="white"/>
</g>
</svg>
