<svg width="155" height="155" viewBox="0 0 155 155" fill="none" xmlns="http://www.w3.org/2000/svg">
<path fill-rule="evenodd" clip-rule="evenodd" d="M74.6899 0.0162967C73.902 0.100721 72.4716 0.413039 71.6306 0.684259C69.403 1.40259 67.0713 2.71941 64.1895 4.88645C55.7599 11.2253 50.6441 20.4384 48.5271 33.0934C48.2318 34.8585 47.9276 37.0219 47.9689 37.0634C48.0153 37.1096 48.8757 35.8741 49.2444 35.2318C49.7424 34.3644 50.2527 33.3214 51.1336 31.3692C53.5348 26.0477 54.6409 24.0809 57.8375 19.4489C60.2972 15.885 61.8989 13.8658 63.689 12.0727C66.4454 9.31173 69.0201 7.75915 72.0984 7.00164C73.578 6.63756 74.3374 6.5514 76.054 6.55264C81.0177 6.55611 85.2323 8.31606 88.7893 11.8705C93.1845 16.2625 96.1809 22.6936 98.9422 33.6608C100.94 41.596 102.131 49.5738 102.713 58.9223C103.093 65.0094 103.191 70.7409 103.074 79.8641C103.023 83.8552 103.01 87.1483 103.044 87.1821C103.13 87.2661 103.695 86.6237 104.169 85.9027C104.599 85.2484 104.991 84.2546 105.193 83.3071C105.455 82.0806 105.717 76.6695 105.79 70.9949C105.99 55.441 104.226 40.7034 100.641 27.9965C100.035 25.8501 98.509 21.2944 97.912 19.8516C97.3316 18.4493 96.0182 15.7722 95.2627 14.4515C92.5448 9.70029 89.4319 6.0154 86.0996 3.60469C83.7563 1.90947 81.2464 0.751083 78.8265 0.248159C78.0554 0.0879153 77.5157 0.034578 76.426 0.0110962C75.653 -0.00552785 74.8717 -0.00321301 74.6899 0.0162967ZM87.1331 0.235267C87.1331 0.255185 87.403 0.504329 87.7325 0.788863C96.2438 8.13573 102.316 18.5732 105.726 31.7175C107.759 39.5509 108.888 48.0781 109.296 58.6743C109.477 63.3866 109.398 72.4094 109.12 78.6716C109.071 79.7786 109.044 80.698 109.061 80.7148C109.116 80.7702 109.84 78.8377 110.348 77.2793C111.681 73.1901 112.487 68.8246 112.945 63.2221C113.087 61.4785 113.088 54.3934 112.945 52.4313C112.515 46.4949 111.673 41.2065 110.285 35.7279C106.337 20.1403 99.0478 7.87675 90.2336 1.99184C89.224 1.31775 87.1331 0.133141 87.1331 0.235267ZM54.9708 42.8036C39.5748 43.3191 23.4779 48.1312 12.556 55.4832C9.94248 57.2425 8.07474 58.7703 5.9788 60.8635C4.36324 62.4768 3.10023 63.9927 2.01547 65.6202C1.31087 66.6772 0.184947 68.6555 0.250589 68.721C0.270677 68.7412 0.526908 68.4709 0.819997 68.1204C1.67433 67.0992 4.39631 64.3634 5.63344 63.2827C15.2678 54.8669 28.0629 49.778 44.9664 47.6391C54.0944 46.484 64.3602 46.1832 77.5423 46.6842C78.7019 46.7283 79.911 46.7826 80.2294 46.805C80.8029 46.8455 80.806 46.8446 80.56 46.7097C80.1787 46.5006 78.0527 45.7342 76.7024 45.3194C71.8193 43.8189 66.65 43.0178 60.4323 42.7984C57.9579 42.7109 57.7341 42.711 54.9708 42.8036ZM117.89 48.3634C117.89 48.3775 118.123 48.5593 118.407 48.7676C119.35 49.4593 120.881 50.2699 123.513 51.4721C128.572 53.7831 130.504 54.8317 133.847 57.0824C140.704 61.6985 143.672 64.3038 145.834 67.6047C148.388 71.5039 149.086 76.2558 147.821 81.1393C146.216 87.3348 141.124 92.2484 132.682 95.7475C127.055 98.0796 117.797 100.454 109.439 101.708C103.924 102.536 99.0221 102.983 91.5151 103.345C89.1734 103.458 68.5869 103.485 68.0061 103.376C67.7547 103.329 67.7139 103.34 67.7553 103.449C67.8482 103.69 68.9003 104.488 69.6049 104.85C70.8967 105.515 71.7016 105.682 74.4005 105.847C81.7597 106.296 90.2477 106.295 97.4266 105.844C109.269 105.101 120.048 103.219 129.655 100.217C133.968 98.8689 136.822 97.6908 139.9 95.9865C146.522 92.3198 150.855 88.2029 153.279 83.2742C155.051 79.6702 155.437 76.417 154.518 72.814C153.493 68.7992 149.482 62.9923 145.043 59.0964C138.602 53.4435 130.721 50.1588 119.833 48.589C118.107 48.3401 117.89 48.3149 117.89 48.3634ZM63.2386 50.1299C49.5763 50.6254 38.2721 52.277 27.6875 55.324C23.2326 56.6064 20.1388 57.7391 17.3101 59.1233C11.2203 62.1038 6.58369 65.6965 3.69701 69.6719C-0.457232 75.393 -1.10784 81.0364 1.73196 86.7169C2.44647 88.1463 3.50677 89.8054 4.86908 91.626C11.0368 99.8683 19.9245 104.933 32.1459 107.17C33.9555 107.501 36.7221 107.899 36.9269 107.857C37.0258 107.836 36.8703 107.686 36.427 107.375C35.3913 106.648 34.1215 105.979 31.6326 104.848C28.4949 103.423 25.5239 101.928 23.9556 100.987C22.6934 100.229 19.4995 98.0813 17.4341 96.6012C10.1303 91.3671 7.08209 86.9967 6.59336 81.0583C6.39989 78.7072 6.80478 75.8336 7.64845 73.5695C9.1495 69.5411 12.0601 66.2339 16.6486 63.3428C18.7679 62.0078 22.6708 60.2388 25.8261 59.1833C30.7067 57.5506 37.315 55.9169 42.9066 54.9604C49.4834 53.8354 55.9065 53.2136 64.4789 52.8721C67.3429 52.7579 77.4492 52.7318 83.3711 52.8232L87.3399 52.8844L86.7808 52.3556C85.8926 51.5155 84.5099 50.872 83.0397 50.6146C82.3087 50.4867 78.9644 50.2833 75.5166 50.1572C73.5697 50.0861 64.9748 50.067 63.2386 50.1299ZM52.0648 68.1629C51.1901 69.0716 50.6198 70.2387 50.3053 71.7632C49.8438 74 49.5563 87.095 49.8327 93.2797C50.4999 108.207 52.6392 120.798 56.3797 131.813C58.0134 136.624 60.0628 140.68 62.7931 144.506C67.0432 150.461 72.2226 154.103 77.5584 154.89C78.8848 155.085 80.9334 155.014 82.3021 154.726C84.7154 154.218 86.9331 153.172 89.9028 151.141C93.5642 148.636 96.9917 145.245 99.4741 141.671C103.419 135.991 106.031 128.771 107.259 120.154C107.376 119.335 107.491 118.498 107.515 118.293L107.558 117.921L107.303 118.21C106.651 118.951 105.542 121.022 104.177 124.053C101.744 129.454 100.331 131.864 96.239 137.592C94.1871 140.464 91.7769 143.17 89.9856 144.613C86.0416 147.79 81.787 148.969 76.8037 148.267C72.0234 147.592 67.8731 145.016 64.5902 140.684C61.2901 136.33 58.871 130.492 56.5801 121.353C54.0772 111.368 52.8964 102.039 52.4821 88.9798C52.3837 85.8801 52.4326 68.1821 52.5402 67.9016C52.6316 67.6634 52.4486 67.7639 52.0648 68.1629ZM46.2095 74.7763C44.1828 79.9571 43.0858 85.1252 42.5543 91.998C42.4159 93.7868 42.4153 100.418 42.5532 102.293C42.8135 105.829 43.1317 108.605 43.6099 111.513C45.5109 123.073 49.5166 133.942 54.8661 142.057C57.9771 146.776 61.4882 150.466 65.2643 152.982C66.3882 153.731 68.2636 154.806 68.3305 154.738C68.3487 154.72 67.9661 154.357 67.4805 153.929C58.9587 146.446 53.0244 136.054 49.6456 122.701C46.5775 110.576 45.5641 96.2841 46.3789 76.6337C46.4306 75.3918 46.4554 74.3584 46.4344 74.3374C46.4134 74.3164 46.3121 74.5138 46.2095 74.7763ZM153.98 88.3356C153.032 89.4445 150.781 91.711 149.554 92.7934C139.07 102.041 124.78 107.322 105.405 109.111C103.411 109.295 100.871 109.471 97.9228 109.629C95.2917 109.769 82.3662 109.77 79.0719 109.63C77.7531 109.573 76.116 109.507 75.4339 109.483L74.1937 109.438L74.8965 109.736C77.752 110.946 82.6603 112.209 86.7611 112.789C90.4414 113.31 92.6805 113.452 97.1374 113.451C100.789 113.45 102.051 113.397 105.075 113.118C119.051 111.831 133.038 107.178 142.653 100.617C145.222 98.863 146.938 97.4458 149.023 95.3552C150.759 93.615 151.895 92.2504 153.002 90.5754C153.707 89.5104 154.817 87.5571 154.755 87.4954C154.738 87.4789 154.389 87.857 153.98 88.3356Z" fill="white"/>
</svg>
