<svg width="51" height="52" viewBox="0 0 51 52" fill="none" xmlns="http://www.w3.org/2000/svg">
<g id="Group">
<g id="Group_2">
<path id="Vector" d="M25.138 5.3542C31.8407 5.3542 32.6321 5.3779 35.2777 5.50235C37.7226 5.61494 39.0513 6.02383 39.9371 6.36753C41.1064 6.82383 41.945 7.36902 42.8249 8.25198C43.7048 9.13494 44.2481 9.9705 44.7029 11.1498C45.0454 12.0386 45.4529 13.372 45.5651 15.8253C45.6832 18.4801 45.7127 19.2801 45.7127 26.0001C45.7127 32.7201 45.6891 33.5201 45.5651 36.1749C45.4529 38.6283 45.0454 39.9616 44.7029 40.8505C44.2481 42.0238 43.7048 42.8653 42.8249 43.7483C41.945 44.6312 41.1123 45.1764 39.9371 45.6327C39.0513 45.9764 37.7226 46.3853 35.2777 46.4979C32.6321 46.6164 31.8407 46.646 25.138 46.646C18.4353 46.646 17.6439 46.6223 14.9983 46.4979C12.5534 46.3853 11.2247 45.9764 10.3389 45.6327C9.16957 45.1764 8.33101 44.6312 7.4511 43.7483C6.57118 42.8653 6.02784 42.0298 5.57312 40.8505C5.2306 39.9616 4.82315 38.6283 4.71095 36.1749C4.59284 33.5201 4.56331 32.7201 4.56331 26.0001C4.56331 19.2801 4.58693 18.4801 4.71095 15.8253C4.82315 13.372 5.2306 12.0386 5.57312 11.1498C6.02784 9.97642 6.57118 9.13494 7.4511 8.25198C8.33101 7.36902 9.16366 6.82383 10.3389 6.36753C11.2247 6.02383 12.5534 5.61494 14.9983 5.50235C17.6439 5.38383 18.4412 5.3542 25.138 5.3542ZM25.138 0.814941C18.3231 0.814941 17.4668 0.844571 14.7916 0.969016C12.1223 1.09346 10.2975 1.5142 8.69715 2.14235C7.04952 2.78827 5.6499 3.64753 4.2503 5.04605C2.85661 6.44457 1.99443 7.84901 1.35664 9.50827C0.73656 11.1083 0.311341 12.9394 0.187326 15.6238C0.0633106 18.3083 0.0338135 19.1675 0.0338135 26.0061C0.0338135 32.8446 0.0633106 33.7038 0.187326 36.3883C0.311341 39.0668 0.730655 40.8979 1.35664 42.5038C2.00033 44.1572 2.85661 45.5616 4.2503 46.9661C5.64399 48.3646 7.04361 49.2298 8.69715 49.8698C10.2916 50.492 12.1164 50.9186 14.7916 51.0431C17.4668 51.1675 18.3231 51.1972 25.138 51.1972C31.9529 51.1972 32.8092 51.1675 35.4844 51.0431C38.1537 50.9186 39.9785 50.4979 41.5789 49.8698C43.2265 49.2238 44.6261 48.3646 46.0257 46.9661C47.4194 45.5675 48.2816 44.1631 48.9194 42.5038C49.5395 40.9038 49.9646 39.0727 50.0886 36.3883C50.2127 33.7038 50.2422 32.8446 50.2422 26.0061C50.2422 19.1675 50.2127 18.3083 50.0886 15.6238C49.9646 12.9453 49.5454 11.1142 48.9194 9.50827C48.2757 7.85494 47.4194 6.4505 46.0257 5.04605C44.632 3.64753 43.2324 2.78235 41.5789 2.14235C39.9844 1.52013 38.1596 1.09346 35.4844 0.969016C32.8092 0.844571 31.9529 0.814941 25.138 0.814941Z" fill="white"/>
<path id="Vector_2" d="M25.138 13.0698C18.0219 13.0698 12.2522 18.8595 12.2522 26.0002C12.2522 33.1409 18.0219 38.9306 25.138 38.9306C32.2541 38.9306 38.0237 33.1409 38.0237 26.0002C38.0237 18.8595 32.2541 13.0698 25.138 13.0698ZM25.138 34.3972C20.5199 34.3972 16.7699 30.6402 16.7699 26.0002C16.7699 21.3602 20.514 17.6032 25.138 17.6032C29.762 17.6032 33.5061 21.3602 33.5061 26.0002C33.5061 30.6402 29.762 34.3972 25.138 34.3972Z" fill="white"/>
<path id="Vector_3" d="M38.5375 15.5762C40.2009 15.5762 41.5494 14.2231 41.5494 12.554C41.5494 10.8848 40.2009 9.53174 38.5375 9.53174C36.8742 9.53174 35.5258 10.8848 35.5258 12.554C35.5258 14.2231 36.8742 15.5762 38.5375 15.5762Z" fill="white"/>
</g>
</g>
</svg>
