<svg width="82" height="67" viewBox="0 0 82 67" fill="none" xmlns="http://www.w3.org/2000/svg">
<path d="M40.9118 33.5275L31.513 3.72205L28.274 27.0508L37.7909 56.4577L40.9118 33.5275Z" fill="url(#paint0_linear_23_13570)"/>
<path d="M51.0109 37.0278L53.0574 20.1043L64.2681 40.9689L61.9536 56.9589L51.0109 37.0278Z" fill="url(#paint1_linear_23_13570)"/>
<path d="M64.752 36.788L61.9537 56.9588C67.8883 56.7733 73.6676 53.7643 74.1299 50.095L75.6031 37.0411C74.7499 30.5496 66.9213 29.0919 64.752 36.788Z" fill="url(#paint2_linear_23_13570)"/>
<path d="M25.5465 52.0865L31.5131 3.72205C24.5816 3.42796 20.8652 5.93682 19.5803 9.67395L14.6708 49.9879C14.7446 55.5244 23.7747 57.6475 25.5465 52.0865Z" fill="url(#paint3_linear_23_13570)"/>
<path d="M41.9689 25.477C43.0104 22.6518 47.1651 19.1219 53.0574 20.1043L49.846 49.3208C48.028 53.5477 44.6379 56.9927 37.791 56.4577L41.9689 25.477Z" fill="url(#paint4_linear_23_13570)"/>
<defs>
<linearGradient id="paint0_linear_23_13570" x1="36.8306" y1="6.40576" x2="45.3167" y2="52.9776" gradientUnits="userSpaceOnUse">
<stop stop-color="#D94165"/>
<stop offset="1" stop-color="#5D0274"/>
</linearGradient>
<linearGradient id="paint1_linear_23_13570" x1="36.8306" y1="6.40576" x2="45.3167" y2="52.9776" gradientUnits="userSpaceOnUse">
<stop stop-color="#D94165"/>
<stop offset="1" stop-color="#5D0274"/>
</linearGradient>
<linearGradient id="paint2_linear_23_13570" x1="75.1541" y1="29.9857" x2="64.716" y2="60.7305" gradientUnits="userSpaceOnUse">
<stop stop-color="#DD295F"/>
<stop offset="0.760417" stop-color="#F9BA19"/>
</linearGradient>
<linearGradient id="paint3_linear_23_13570" x1="40.4599" y1="10.2478" x2="23.4112" y2="54.6992" gradientUnits="userSpaceOnUse">
<stop offset="0.205385" stop-color="#F9BA19"/>
<stop offset="0.890625" stop-color="#DD295F"/>
</linearGradient>
<linearGradient id="paint4_linear_23_13570" x1="40.4599" y1="10.2478" x2="23.4112" y2="54.6992" gradientUnits="userSpaceOnUse">
<stop offset="0.205385" stop-color="#F9BA19"/>
<stop offset="0.890625" stop-color="#DD295F"/>
</linearGradient>
</defs>
</svg>
