<svg width="80" height="80" viewBox="0 0 80 80" fill="none" xmlns="http://www.w3.org/2000/svg">
<g id="Group">
<path id="Vector" d="M59.2674 23.7512C59.1139 23.3067 58.9308 23.1823 58.6474 23.0756C58.0273 22.8386 56.9761 23.1941 56.9761 23.1941C56.9761 23.1941 19.7184 36.6341 17.5924 38.1216C17.1318 38.4416 16.9783 38.6253 16.9074 38.8445C16.5413 39.9053 17.6869 40.3734 17.6869 40.3734L27.2892 43.5141C27.2892 43.5141 27.6495 43.5675 27.7735 43.4845C29.9585 42.0978 49.7537 29.5586 50.8935 29.1378C51.0765 29.0845 51.2064 29.1438 51.171 29.2682C50.7163 30.8801 33.5254 46.2104 33.5254 46.2104C33.5254 46.2104 33.4605 46.2934 33.4191 46.3882L33.3955 46.3764L32.4979 55.9349C32.4979 55.9349 32.1199 58.8623 35.0431 55.9349C37.1042 53.8667 39.0943 52.1423 40.0923 51.3008C43.3935 53.5882 46.9486 56.1186 48.4781 57.4401C49.2458 58.1038 49.8954 58.2104 50.421 58.1927C51.8738 58.1393 52.2812 56.5334 52.2812 56.5334C52.2812 56.5334 59.0725 29.1141 59.297 25.4401C59.3206 25.0786 59.3501 24.8534 59.3501 24.6045C59.3501 24.2608 59.3206 23.9171 59.2674 23.7512Z" fill="white"/>
</g>
</svg>
