<svg width="54" height="38" viewBox="0 0 54 38" fill="none" xmlns="http://www.w3.org/2000/svg">
<g id="Group">
<path id="Vector" d="M52.5124 6.16461C51.9041 3.87127 50.1029 2.06387 47.8116 1.44757C43.666 0.333497 27.0479 0.333496 27.0479 0.333496C27.0479 0.333496 10.4299 0.333497 6.28426 1.44757C3.99884 2.06387 2.19767 3.86535 1.5835 6.16461C0.473269 10.3246 0.473267 19.0002 0.473267 19.0002C0.473267 19.0002 0.473269 27.6757 1.5835 31.8357C2.19176 34.1291 3.99293 35.9365 6.28426 36.5528C10.4299 37.6668 27.0479 37.6668 27.0479 37.6668C27.0479 37.6668 43.666 37.6668 47.8116 36.5528C50.097 35.9365 51.8982 34.135 52.5124 31.8357C53.6226 27.6757 53.6226 19.0002 53.6226 19.0002C53.6226 19.0002 53.6226 10.3246 52.5124 6.16461ZM21.733 27.0002V11.0002L35.54 19.0002L21.733 27.0002Z" fill="white"/>
</g>
</svg>
